G04 #@! TF.GenerationSoftware,KiCad,Pcbnew,9.0.2*
G04 #@! TF.CreationDate,2025-06-05T16:56:41+03:00*
G04 #@! TF.ProjectId,2-Layer-Proximity-PCB,322d4c61-7965-4722-9d50-726f78696d69,rev?*
G04 #@! TF.SameCoordinates,Original*
G04 #@! TF.FileFunction,Copper,L2,Bot*
G04 #@! TF.FilePolarity,Positive*
%FSLAX46Y46*%
G04 Gerber Fmt 4.6, Leading zero omitted, Abs format (unit mm)*
G04 Created by KiCad (PCBNEW 9.0.2) date 2025-06-05 16:56:41*
%MOMM*%
%LPD*%
G01*
G04 APERTURE LIST*
G04 #@! TA.AperFunction,ComponentPad*
%ADD10R,1.800000X1.800000*%
G04 #@! TD*
G04 #@! TA.AperFunction,ComponentPad*
%ADD11C,1.800000*%
G04 #@! TD*
G04 #@! TA.AperFunction,ComponentPad*
%ADD12C,2.340000*%
G04 #@! TD*
G04 #@! TA.AperFunction,ComponentPad*
%ADD13R,1.700000X1.700000*%
G04 #@! TD*
G04 #@! TA.AperFunction,ComponentPad*
%ADD14C,1.700000*%
G04 #@! TD*
G04 #@! TA.AperFunction,ViaPad*
%ADD15C,0.600000*%
G04 #@! TD*
G04 #@! TA.AperFunction,Conductor*
%ADD16C,0.500000*%
G04 #@! TD*
G04 APERTURE END LIST*
D10*
X125700000Y-81700000D03*
D11*
X125700000Y-84240000D03*
D10*
X125800000Y-71300000D03*
D11*
X125800000Y-73840000D03*
D12*
X139500000Y-81150000D03*
X137000000Y-71150000D03*
X134500000Y-81150000D03*
D13*
X147000000Y-76460000D03*
D14*
X147000000Y-79000000D03*
X147000000Y-81540000D03*
D15*
X145300000Y-76500000D03*
X144400000Y-79300000D03*
X145200000Y-78000000D03*
X145230331Y-82330331D03*
X141500000Y-86900000D03*
X136200000Y-83700000D03*
D16*
X144400000Y-77400000D02*
X144400000Y-79300000D01*
X145300000Y-76500000D02*
X144400000Y-77400000D01*
X145200000Y-82300000D02*
X145230331Y-82330331D01*
X145200000Y-78000000D02*
X145200000Y-82300000D01*
X138300000Y-83700000D02*
X141500000Y-86900000D01*
X136200000Y-83700000D02*
X138300000Y-83700000D01*
G04 #@! TA.AperFunction,Conductor*
G36*
X136120283Y-69520185D02*
G01*
X136166038Y-69572989D01*
X136175982Y-69642147D01*
X136146957Y-69705703D01*
X136115244Y-69731887D01*
X136069929Y-69758049D01*
X135896201Y-69891355D01*
X135896194Y-69891361D01*
X135741361Y-70046194D01*
X135741355Y-70046201D01*
X135608049Y-70219929D01*
X135498565Y-70409561D01*
X135498560Y-70409573D01*
X135414758Y-70611884D01*
X135358084Y-70823399D01*
X135358082Y-70823410D01*
X135329500Y-71040502D01*
X135329500Y-71259497D01*
X135334833Y-71300000D01*
X135358083Y-71476598D01*
X135414759Y-71688117D01*
X135498560Y-71890428D01*
X135498562Y-71890433D01*
X135498565Y-71890438D01*
X135608049Y-72080070D01*
X135741355Y-72253798D01*
X135741361Y-72253805D01*
X135896194Y-72408638D01*
X135896201Y-72408644D01*
X136069929Y-72541950D01*
X136259561Y-72651434D01*
X136259563Y-72651434D01*
X136259572Y-72651440D01*
X136461883Y-72735241D01*
X136673402Y-72791917D01*
X136890510Y-72820500D01*
X136890517Y-72820500D01*
X137109483Y-72820500D01*
X137109490Y-72820500D01*
X137326598Y-72791917D01*
X137538117Y-72735241D01*
X137740428Y-72651440D01*
X137930071Y-72541950D01*
X138103800Y-72408643D01*
X138258643Y-72253800D01*
X138391950Y-72080071D01*
X138501440Y-71890428D01*
X138585241Y-71688117D01*
X138641917Y-71476598D01*
X138670500Y-71259490D01*
X138670500Y-71040510D01*
X138641917Y-70823402D01*
X138585241Y-70611883D01*
X138501440Y-70409572D01*
X138468290Y-70352155D01*
X138391950Y-70219929D01*
X138258644Y-70046201D01*
X138258638Y-70046194D01*
X138103805Y-69891361D01*
X138103798Y-69891355D01*
X137930070Y-69758049D01*
X137884756Y-69731887D01*
X137836540Y-69681320D01*
X137823317Y-69612713D01*
X137849285Y-69547848D01*
X137906200Y-69507320D01*
X137946756Y-69500500D01*
X157375500Y-69500500D01*
X157442539Y-69520185D01*
X157488294Y-69572989D01*
X157499500Y-69624500D01*
X157499500Y-89375500D01*
X157479815Y-89442539D01*
X157427011Y-89488294D01*
X157375500Y-89499500D01*
X124624500Y-89499500D01*
X124557461Y-89479815D01*
X124511706Y-89427011D01*
X124500500Y-89375500D01*
X124500500Y-85137308D01*
X124520185Y-85070269D01*
X124536819Y-85049627D01*
X125257861Y-84328584D01*
X125280667Y-84413694D01*
X125339910Y-84516306D01*
X125423694Y-84600090D01*
X125526306Y-84659333D01*
X125611414Y-84682137D01*
X124902485Y-85391065D01*
X124902485Y-85391066D01*
X124966243Y-85437388D01*
X125162589Y-85537432D01*
X125372164Y-85605526D01*
X125589819Y-85640000D01*
X125810181Y-85640000D01*
X126027835Y-85605526D01*
X126237410Y-85537432D01*
X126433760Y-85437386D01*
X126497513Y-85391066D01*
X126497514Y-85391066D01*
X125788585Y-84682138D01*
X125873694Y-84659333D01*
X125976306Y-84600090D01*
X126060090Y-84516306D01*
X126119333Y-84413694D01*
X126142137Y-84328585D01*
X126851066Y-85037514D01*
X126851066Y-85037513D01*
X126897386Y-84973760D01*
X126997432Y-84777410D01*
X127065526Y-84567835D01*
X127100000Y-84350181D01*
X127100000Y-84129818D01*
X127065526Y-83912164D01*
X126997431Y-83702586D01*
X126981522Y-83671362D01*
X126981521Y-83671361D01*
X126955938Y-83621153D01*
X135399500Y-83621153D01*
X135399500Y-83778846D01*
X135430261Y-83933489D01*
X135430264Y-83933501D01*
X135490602Y-84079172D01*
X135490609Y-84079185D01*
X135578210Y-84210288D01*
X135578213Y-84210292D01*
X135689707Y-84321786D01*
X135689711Y-84321789D01*
X135820814Y-84409390D01*
X135820827Y-84409397D01*
X135920060Y-84450500D01*
X135966503Y-84469737D01*
X136121153Y-84500499D01*
X136121156Y-84500500D01*
X136121158Y-84500500D01*
X136278844Y-84500500D01*
X136278845Y-84500499D01*
X136355152Y-84485320D01*
X136433488Y-84469739D01*
X136433489Y-84469738D01*
X136433497Y-84469737D01*
X136457155Y-84459937D01*
X136504604Y-84450500D01*
X137937770Y-84450500D01*
X138004809Y-84470185D01*
X138025451Y-84486819D01*
X140753926Y-87215293D01*
X140780805Y-87255519D01*
X140790603Y-87279172D01*
X140790606Y-87279178D01*
X140790609Y-87279185D01*
X140878210Y-87410288D01*
X140878213Y-87410292D01*
X140989707Y-87521786D01*
X140989711Y-87521789D01*
X141120814Y-87609390D01*
X141120827Y-87609397D01*
X141266498Y-87669735D01*
X141266503Y-87669737D01*
X141421153Y-87700499D01*
X141421156Y-87700500D01*
X141421158Y-87700500D01*
X141578844Y-87700500D01*
X141578845Y-87700499D01*
X141733497Y-87669737D01*
X141879179Y-87609394D01*
X142010289Y-87521789D01*
X142121789Y-87410289D01*
X142209394Y-87279179D01*
X142269737Y-87133497D01*
X142300500Y-86978842D01*
X142300500Y-86821158D01*
X142300500Y-86821155D01*
X142300499Y-86821153D01*
X142269738Y-86666510D01*
X142269737Y-86666503D01*
X142269735Y-86666498D01*
X142209397Y-86520827D01*
X142209390Y-86520814D01*
X142121789Y-86389711D01*
X142121786Y-86389707D01*
X142010292Y-86278213D01*
X142010288Y-86278210D01*
X141879185Y-86190609D01*
X141879180Y-86190607D01*
X141879179Y-86190606D01*
X141855519Y-86180805D01*
X141815293Y-86153926D01*
X138778421Y-83117052D01*
X138778414Y-83117046D01*
X138678818Y-83050499D01*
X138678817Y-83050499D01*
X138655495Y-83034916D01*
X138655488Y-83034912D01*
X138518917Y-82978343D01*
X138518907Y-82978340D01*
X138373920Y-82949500D01*
X138373918Y-82949500D01*
X136504604Y-82949500D01*
X136457155Y-82940062D01*
X136433497Y-82930263D01*
X136433493Y-82930262D01*
X136433488Y-82930260D01*
X136278845Y-82899500D01*
X136278842Y-82899500D01*
X136121158Y-82899500D01*
X136121155Y-82899500D01*
X135966510Y-82930261D01*
X135966498Y-82930264D01*
X135820827Y-82990602D01*
X135820814Y-82990609D01*
X135689711Y-83078210D01*
X135689707Y-83078213D01*
X135578213Y-83189707D01*
X135578210Y-83189711D01*
X135490609Y-83320814D01*
X135490602Y-83320827D01*
X135430264Y-83466498D01*
X135430261Y-83466510D01*
X135399500Y-83621153D01*
X126955938Y-83621153D01*
X126897388Y-83506243D01*
X126851066Y-83442485D01*
X126851065Y-83442485D01*
X126142137Y-84151413D01*
X126119333Y-84066306D01*
X126060090Y-83963694D01*
X125976306Y-83879910D01*
X125873694Y-83820667D01*
X125788584Y-83797861D01*
X126517415Y-83069031D01*
X126578738Y-83035546D01*
X126648430Y-83040530D01*
X126692778Y-83069032D01*
X126714635Y-83090889D01*
X126842086Y-83043354D01*
X126842093Y-83043350D01*
X126957187Y-82957190D01*
X126957190Y-82957187D01*
X127043350Y-82842093D01*
X127043354Y-82842086D01*
X127093596Y-82707379D01*
X127093598Y-82707372D01*
X127099999Y-82647844D01*
X127100000Y-82647827D01*
X127100000Y-81950000D01*
X126075278Y-81950000D01*
X126119333Y-81873694D01*
X126150000Y-81759244D01*
X126150000Y-81640756D01*
X126119333Y-81526306D01*
X126075278Y-81450000D01*
X127100000Y-81450000D01*
X127100000Y-81040548D01*
X132830000Y-81040548D01*
X132830000Y-81259451D01*
X132830001Y-81259467D01*
X132858573Y-81476496D01*
X132915234Y-81687956D01*
X132999004Y-81890198D01*
X132999012Y-81890214D01*
X133108460Y-82079782D01*
X133108466Y-82079790D01*
X133155438Y-82141007D01*
X133898958Y-81397487D01*
X133923978Y-81457890D01*
X133995112Y-81564351D01*
X134085649Y-81654888D01*
X134192110Y-81726022D01*
X134252511Y-81751041D01*
X133508991Y-82494560D01*
X133508991Y-82494561D01*
X133570200Y-82541527D01*
X133570208Y-82541532D01*
X133759792Y-82650990D01*
X133759801Y-82650995D01*
X133962043Y-82734765D01*
X134173503Y-82791426D01*
X134390532Y-82819998D01*
X134390549Y-82820000D01*
X134609451Y-82820000D01*
X134609467Y-82819998D01*
X134826496Y-82791426D01*
X135037956Y-82734765D01*
X135240198Y-82650995D01*
X135240214Y-82650987D01*
X135429785Y-82541537D01*
X135429793Y-82541531D01*
X135491007Y-82494560D01*
X134747488Y-81751041D01*
X134807890Y-81726022D01*
X134914351Y-81654888D01*
X135004888Y-81564351D01*
X135076022Y-81457890D01*
X135101041Y-81397488D01*
X135844560Y-82141007D01*
X135891531Y-82079793D01*
X135891537Y-82079785D01*
X136000987Y-81890214D01*
X136000995Y-81890198D01*
X136084765Y-81687956D01*
X136141426Y-81476496D01*
X136169998Y-81259467D01*
X136170000Y-81259451D01*
X136170000Y-81040540D01*
X136169995Y-81040502D01*
X137829500Y-81040502D01*
X137829500Y-81259497D01*
X137851118Y-81423694D01*
X137858083Y-81476598D01*
X137858084Y-81476600D01*
X137914715Y-81687956D01*
X137914759Y-81688117D01*
X137998560Y-81890428D01*
X137998562Y-81890433D01*
X137998565Y-81890438D01*
X138108049Y-82080070D01*
X138241355Y-82253798D01*
X138241361Y-82253805D01*
X138396194Y-82408638D01*
X138396201Y-82408644D01*
X138569929Y-82541950D01*
X138759561Y-82651434D01*
X138759563Y-82651434D01*
X138759572Y-82651440D01*
X138961883Y-82735241D01*
X139173402Y-82791917D01*
X139390510Y-82820500D01*
X139390517Y-82820500D01*
X139609483Y-82820500D01*
X139609490Y-82820500D01*
X139826598Y-82791917D01*
X140038117Y-82735241D01*
X140240428Y-82651440D01*
X140430071Y-82541950D01*
X140603800Y-82408643D01*
X140758643Y-82253800D01*
X140891950Y-82080071D01*
X141001440Y-81890428D01*
X141085241Y-81688117D01*
X141141917Y-81476598D01*
X141170500Y-81259490D01*
X141170500Y-81040510D01*
X141141917Y-80823402D01*
X141085241Y-80611883D01*
X141001440Y-80409572D01*
X140984647Y-80380486D01*
X140891950Y-80219929D01*
X140758644Y-80046201D01*
X140758638Y-80046194D01*
X140603805Y-79891361D01*
X140603798Y-79891355D01*
X140430070Y-79758049D01*
X140240438Y-79648565D01*
X140240433Y-79648562D01*
X140240428Y-79648560D01*
X140038117Y-79564759D01*
X140038118Y-79564759D01*
X140038115Y-79564758D01*
X139932357Y-79536421D01*
X139826598Y-79508083D01*
X139790314Y-79503306D01*
X139609497Y-79479500D01*
X139609490Y-79479500D01*
X139390510Y-79479500D01*
X139390502Y-79479500D01*
X139183853Y-79506707D01*
X139173402Y-79508083D01*
X139134846Y-79518414D01*
X138961884Y-79564758D01*
X138843374Y-79613847D01*
X138759572Y-79648560D01*
X138759569Y-79648561D01*
X138759561Y-79648565D01*
X138569929Y-79758049D01*
X138396201Y-79891355D01*
X138396194Y-79891361D01*
X138241361Y-80046194D01*
X138241355Y-80046201D01*
X138108049Y-80219929D01*
X137998565Y-80409561D01*
X137998561Y-80409569D01*
X137998560Y-80409572D01*
X137963847Y-80493374D01*
X137914758Y-80611884D01*
X137858084Y-80823399D01*
X137858082Y-80823410D01*
X137829500Y-81040502D01*
X136169995Y-81040502D01*
X136141426Y-80823503D01*
X136084765Y-80612043D01*
X136000995Y-80409801D01*
X136000990Y-80409792D01*
X135891532Y-80220208D01*
X135891527Y-80220200D01*
X135844560Y-80158991D01*
X135101041Y-80902510D01*
X135076022Y-80842110D01*
X135004888Y-80735649D01*
X134914351Y-80645112D01*
X134807890Y-80573978D01*
X134747487Y-80548957D01*
X135491007Y-79805438D01*
X135491007Y-79805437D01*
X135429790Y-79758466D01*
X135429782Y-79758460D01*
X135240214Y-79649012D01*
X135240198Y-79649004D01*
X135037956Y-79565234D01*
X134826496Y-79508573D01*
X134609467Y-79480001D01*
X134609451Y-79480000D01*
X134390549Y-79480000D01*
X134390532Y-79480001D01*
X134173503Y-79508573D01*
X133962043Y-79565234D01*
X133759801Y-79649004D01*
X133759785Y-79649012D01*
X133570215Y-79758461D01*
X133570200Y-79758471D01*
X133508990Y-79805438D01*
X134252511Y-80548958D01*
X134192110Y-80573978D01*
X134085649Y-80645112D01*
X133995112Y-80735649D01*
X133923978Y-80842110D01*
X133898958Y-80902511D01*
X133155438Y-80158990D01*
X133108471Y-80220200D01*
X133108461Y-80220215D01*
X132999012Y-80409785D01*
X132999004Y-80409801D01*
X132915234Y-80612043D01*
X132858573Y-80823503D01*
X132830001Y-81040532D01*
X132830000Y-81040548D01*
X127100000Y-81040548D01*
X127100000Y-80752172D01*
X127099999Y-80752155D01*
X127093598Y-80692627D01*
X127093596Y-80692620D01*
X127043354Y-80557913D01*
X127043350Y-80557906D01*
X126957190Y-80442812D01*
X126957187Y-80442809D01*
X126842093Y-80356649D01*
X126842086Y-80356645D01*
X126707379Y-80306403D01*
X126707372Y-80306401D01*
X126647844Y-80300000D01*
X125950000Y-80300000D01*
X125950000Y-81324722D01*
X125873694Y-81280667D01*
X125759244Y-81250000D01*
X125640756Y-81250000D01*
X125526306Y-81280667D01*
X125450000Y-81324722D01*
X125450000Y-80300000D01*
X124752155Y-80300000D01*
X124692627Y-80306401D01*
X124692617Y-80306403D01*
X124667832Y-80315648D01*
X124598141Y-80320632D01*
X124536818Y-80287146D01*
X124503334Y-80225823D01*
X124500500Y-80199466D01*
X124500500Y-76002486D01*
X134749500Y-76002486D01*
X134749500Y-76297513D01*
X134779559Y-76525826D01*
X134788007Y-76589993D01*
X134860381Y-76860099D01*
X134864361Y-76874951D01*
X134864364Y-76874961D01*
X134977254Y-77147500D01*
X134977258Y-77147510D01*
X135124761Y-77402993D01*
X135304352Y-77637040D01*
X135304358Y-77637047D01*
X135512952Y-77845641D01*
X135512959Y-77845647D01*
X135747006Y-78025238D01*
X136002489Y-78172741D01*
X136002490Y-78172741D01*
X136002493Y-78172743D01*
X136275048Y-78285639D01*
X136560007Y-78361993D01*
X136852494Y-78400500D01*
X136852501Y-78400500D01*
X137147499Y-78400500D01*
X137147506Y-78400500D01*
X137439993Y-78361993D01*
X137724952Y-78285639D01*
X137997507Y-78172743D01*
X138252994Y-78025238D01*
X138388640Y-77921153D01*
X144399500Y-77921153D01*
X144399500Y-78078846D01*
X144430261Y-78233489D01*
X144430263Y-78233497D01*
X144440061Y-78257151D01*
X144449500Y-78304604D01*
X144449500Y-82140394D01*
X144447117Y-82164585D01*
X144429831Y-82251485D01*
X144429831Y-82409177D01*
X144460592Y-82563820D01*
X144460595Y-82563832D01*
X144520933Y-82709503D01*
X144520940Y-82709516D01*
X144608541Y-82840619D01*
X144608544Y-82840623D01*
X144720038Y-82952117D01*
X144720042Y-82952120D01*
X144851145Y-83039721D01*
X144851158Y-83039728D01*
X144996829Y-83100066D01*
X144996834Y-83100068D01*
X145151484Y-83130830D01*
X145151487Y-83130831D01*
X145151489Y-83130831D01*
X145309175Y-83130831D01*
X145309176Y-83130830D01*
X145463828Y-83100068D01*
X145600749Y-83043354D01*
X145609503Y-83039728D01*
X145609503Y-83039727D01*
X145609510Y-83039725D01*
X145740620Y-82952120D01*
X145852120Y-82840620D01*
X145939725Y-82709510D01*
X145965668Y-82646877D01*
X146009506Y-82592475D01*
X146075800Y-82570409D01*
X146143499Y-82587687D01*
X146153113Y-82594011D01*
X146231535Y-82650987D01*
X146292184Y-82695051D01*
X146481588Y-82791557D01*
X146683757Y-82857246D01*
X146893713Y-82890500D01*
X146893714Y-82890500D01*
X147106286Y-82890500D01*
X147106287Y-82890500D01*
X147316243Y-82857246D01*
X147518412Y-82791557D01*
X147707816Y-82695051D01*
X147767850Y-82651434D01*
X147879786Y-82570109D01*
X147879788Y-82570106D01*
X147879792Y-82570104D01*
X148030104Y-82419792D01*
X148030106Y-82419788D01*
X148030109Y-82419786D01*
X148155048Y-82247820D01*
X148155047Y-82247820D01*
X148155051Y-82247816D01*
X148251557Y-82058412D01*
X148317246Y-81856243D01*
X148350500Y-81646287D01*
X148350500Y-81433713D01*
X148317246Y-81223757D01*
X148251557Y-81021588D01*
X148155051Y-80832184D01*
X148155049Y-80832181D01*
X148155048Y-80832179D01*
X148030109Y-80660213D01*
X147879786Y-80509890D01*
X147707820Y-80384951D01*
X147707115Y-80384591D01*
X147699054Y-80380485D01*
X147648259Y-80332512D01*
X147631463Y-80264692D01*
X147653999Y-80198556D01*
X147699054Y-80159515D01*
X147707816Y-80155051D01*
X147729789Y-80139086D01*
X147879786Y-80030109D01*
X147879788Y-80030106D01*
X147879792Y-80030104D01*
X148030104Y-79879792D01*
X148030106Y-79879788D01*
X148030109Y-79879786D01*
X148155048Y-79707820D01*
X148155047Y-79707820D01*
X148155051Y-79707816D01*
X148251557Y-79518412D01*
X148317246Y-79316243D01*
X148350500Y-79106287D01*
X148350500Y-78893713D01*
X148317246Y-78683757D01*
X148251557Y-78481588D01*
X148155051Y-78292184D01*
X148155049Y-78292181D01*
X148155048Y-78292179D01*
X148030109Y-78120213D01*
X147916181Y-78006285D01*
X147882696Y-77944962D01*
X147887680Y-77875270D01*
X147929552Y-77819337D01*
X147960529Y-77802422D01*
X148092086Y-77753354D01*
X148092093Y-77753350D01*
X148207187Y-77667190D01*
X148207190Y-77667187D01*
X148293350Y-77552093D01*
X148293354Y-77552086D01*
X148343596Y-77417379D01*
X148343598Y-77417372D01*
X148349999Y-77357844D01*
X148350000Y-77357827D01*
X148350000Y-76710000D01*
X147433012Y-76710000D01*
X147465925Y-76652993D01*
X147500000Y-76525826D01*
X147500000Y-76394174D01*
X147465925Y-76267007D01*
X147433012Y-76210000D01*
X148350000Y-76210000D01*
X148350000Y-75562172D01*
X148349999Y-75562155D01*
X148343598Y-75502627D01*
X148343596Y-75502620D01*
X148293354Y-75367913D01*
X148293350Y-75367906D01*
X148207190Y-75252812D01*
X148207187Y-75252809D01*
X148092093Y-75166649D01*
X148092086Y-75166645D01*
X147957379Y-75116403D01*
X147957372Y-75116401D01*
X147897844Y-75110000D01*
X147250000Y-75110000D01*
X147250000Y-76026988D01*
X147192993Y-75994075D01*
X147065826Y-75960000D01*
X146934174Y-75960000D01*
X146807007Y-75994075D01*
X146750000Y-76026988D01*
X146750000Y-75110000D01*
X146102155Y-75110000D01*
X146042627Y-75116401D01*
X146042620Y-75116403D01*
X145907913Y-75166645D01*
X145907906Y-75166649D01*
X145792812Y-75252809D01*
X145792809Y-75252812D01*
X145706649Y-75367906D01*
X145706645Y-75367913D01*
X145656403Y-75502620D01*
X145656401Y-75502627D01*
X145650000Y-75562155D01*
X145650000Y-76210000D01*
X146566988Y-76210000D01*
X146534075Y-76267007D01*
X146500000Y-76394174D01*
X146500000Y-76525826D01*
X146534075Y-76652993D01*
X146566988Y-76710000D01*
X145650000Y-76710000D01*
X145650000Y-77134362D01*
X145630315Y-77201401D01*
X145577511Y-77247156D01*
X145508353Y-77257100D01*
X145478548Y-77248923D01*
X145433501Y-77230264D01*
X145433489Y-77230261D01*
X145278845Y-77199500D01*
X145278842Y-77199500D01*
X145121158Y-77199500D01*
X145121155Y-77199500D01*
X144966510Y-77230261D01*
X144966498Y-77230264D01*
X144820827Y-77290602D01*
X144820814Y-77290609D01*
X144689711Y-77378210D01*
X144689707Y-77378213D01*
X144578213Y-77489707D01*
X144578210Y-77489711D01*
X144490609Y-77620814D01*
X144490602Y-77620827D01*
X144430264Y-77766498D01*
X144430261Y-77766510D01*
X144399500Y-77921153D01*
X138388640Y-77921153D01*
X138487042Y-77845646D01*
X138487739Y-77844949D01*
X138505304Y-77827385D01*
X138695641Y-77637047D01*
X138695646Y-77637042D01*
X138875238Y-77402994D01*
X139022743Y-77147507D01*
X139135639Y-76874952D01*
X139211993Y-76589993D01*
X139250500Y-76297506D01*
X139250500Y-76002494D01*
X139211993Y-75710007D01*
X139135639Y-75425048D01*
X139022743Y-75152493D01*
X139014315Y-75137896D01*
X138875238Y-74897006D01*
X138695647Y-74662959D01*
X138695641Y-74662952D01*
X138487047Y-74454358D01*
X138487040Y-74454352D01*
X138252993Y-74274761D01*
X137997510Y-74127258D01*
X137997500Y-74127254D01*
X137724961Y-74014364D01*
X137724954Y-74014362D01*
X137724952Y-74014361D01*
X137439993Y-73938007D01*
X137391113Y-73931571D01*
X137147513Y-73899500D01*
X137147506Y-73899500D01*
X136852494Y-73899500D01*
X136852486Y-73899500D01*
X136574085Y-73936153D01*
X136560007Y-73938007D01*
X136514420Y-73950222D01*
X136275048Y-74014361D01*
X136275038Y-74014364D01*
X136002499Y-74127254D01*
X136002489Y-74127258D01*
X135747006Y-74274761D01*
X135512959Y-74454352D01*
X135512952Y-74454358D01*
X135304358Y-74662952D01*
X135304352Y-74662959D01*
X135124761Y-74897006D01*
X134977258Y-75152489D01*
X134977254Y-75152499D01*
X134864364Y-75425038D01*
X134864361Y-75425048D01*
X134788008Y-75710004D01*
X134788006Y-75710015D01*
X134749500Y-76002486D01*
X124500500Y-76002486D01*
X124500500Y-74815699D01*
X124520185Y-74748660D01*
X124572989Y-74702905D01*
X124642147Y-74692961D01*
X124705703Y-74721986D01*
X124724819Y-74742815D01*
X124731754Y-74752361D01*
X124887636Y-74908243D01*
X124887641Y-74908247D01*
X125043192Y-75021260D01*
X125065978Y-75037815D01*
X125194375Y-75103237D01*
X125262393Y-75137895D01*
X125262396Y-75137896D01*
X125307341Y-75152499D01*
X125472049Y-75206015D01*
X125689778Y-75240500D01*
X125689779Y-75240500D01*
X125910221Y-75240500D01*
X125910222Y-75240500D01*
X126127951Y-75206015D01*
X126337606Y-75137895D01*
X126534022Y-75037815D01*
X126712365Y-74908242D01*
X126868242Y-74752365D01*
X126997815Y-74574022D01*
X127097895Y-74377606D01*
X127166015Y-74167951D01*
X127200500Y-73950222D01*
X127200500Y-73729778D01*
X127166015Y-73512049D01*
X127097895Y-73302394D01*
X127097895Y-73302393D01*
X127063237Y-73234375D01*
X126997815Y-73105978D01*
X126981260Y-73083192D01*
X126868247Y-72927641D01*
X126868243Y-72927636D01*
X126817683Y-72877076D01*
X126784198Y-72815753D01*
X126789182Y-72746061D01*
X126831054Y-72690128D01*
X126862031Y-72673213D01*
X126942086Y-72643354D01*
X126942093Y-72643350D01*
X127057187Y-72557190D01*
X127057190Y-72557187D01*
X127143350Y-72442093D01*
X127143354Y-72442086D01*
X127193596Y-72307379D01*
X127193598Y-72307372D01*
X127199999Y-72247844D01*
X127200000Y-72247827D01*
X127200000Y-71550000D01*
X126175278Y-71550000D01*
X126219333Y-71473694D01*
X126250000Y-71359244D01*
X126250000Y-71240756D01*
X126219333Y-71126306D01*
X126175278Y-71050000D01*
X127200000Y-71050000D01*
X127200000Y-70352172D01*
X127199999Y-70352155D01*
X127193598Y-70292627D01*
X127193596Y-70292620D01*
X127143354Y-70157913D01*
X127143350Y-70157906D01*
X127057190Y-70042812D01*
X127057187Y-70042809D01*
X126942093Y-69956649D01*
X126942086Y-69956645D01*
X126807379Y-69906403D01*
X126807372Y-69906401D01*
X126747844Y-69900000D01*
X126050000Y-69900000D01*
X126050000Y-70924722D01*
X125973694Y-70880667D01*
X125859244Y-70850000D01*
X125740756Y-70850000D01*
X125626306Y-70880667D01*
X125550000Y-70924722D01*
X125550000Y-69900000D01*
X124852155Y-69900000D01*
X124792627Y-69906401D01*
X124792617Y-69906403D01*
X124667832Y-69952945D01*
X124598141Y-69957929D01*
X124536818Y-69924443D01*
X124503334Y-69863120D01*
X124500500Y-69836763D01*
X124500500Y-69624500D01*
X124520185Y-69557461D01*
X124572989Y-69511706D01*
X124624500Y-69500500D01*
X136053244Y-69500500D01*
X136120283Y-69520185D01*
G37*
G04 #@! TD.AperFunction*
M02*
