G04 #@! TF.GenerationSoftware,KiCad,Pcbnew,9.0.2*
G04 #@! TF.CreationDate,2025-06-05T16:56:41+03:00*
G04 #@! TF.ProjectId,2-Layer-Proximity-PCB,322d4c61-7965-4722-9d50-726f78696d69,rev?*
G04 #@! TF.SameCoordinates,Original*
G04 #@! TF.FileFunction,Copper,L1,Top*
G04 #@! TF.FilePolarity,Positive*
%FSLAX46Y46*%
G04 Gerber Fmt 4.6, Leading zero omitted, Abs format (unit mm)*
G04 Created by KiCad (PCBNEW 9.0.2) date 2025-06-05 16:56:41*
%MOMM*%
%LPD*%
G01*
G04 APERTURE LIST*
G04 Aperture macros list*
%AMRoundRect*
0 Rectangle with rounded corners*
0 $1 Rounding radius*
0 $2 $3 $4 $5 $6 $7 $8 $9 X,Y pos of 4 corners*
0 Add a 4 corners polygon primitive as box body*
4,1,4,$2,$3,$4,$5,$6,$7,$8,$9,$2,$3,0*
0 Add four circle primitives for the rounded corners*
1,1,$1+$1,$2,$3*
1,1,$1+$1,$4,$5*
1,1,$1+$1,$6,$7*
1,1,$1+$1,$8,$9*
0 Add four rect primitives between the rounded corners*
20,1,$1+$1,$2,$3,$4,$5,0*
20,1,$1+$1,$4,$5,$6,$7,0*
20,1,$1+$1,$6,$7,$8,$9,0*
20,1,$1+$1,$8,$9,$2,$3,0*%
G04 Aperture macros list end*
G04 #@! TA.AperFunction,SMDPad,CuDef*
%ADD10RoundRect,0.250000X-0.450000X0.262500X-0.450000X-0.262500X0.450000X-0.262500X0.450000X0.262500X0*%
G04 #@! TD*
G04 #@! TA.AperFunction,ComponentPad*
%ADD11R,1.800000X1.800000*%
G04 #@! TD*
G04 #@! TA.AperFunction,ComponentPad*
%ADD12C,1.800000*%
G04 #@! TD*
G04 #@! TA.AperFunction,SMDPad,CuDef*
%ADD13RoundRect,0.250000X0.262500X0.450000X-0.262500X0.450000X-0.262500X-0.450000X0.262500X-0.450000X0*%
G04 #@! TD*
G04 #@! TA.AperFunction,SMDPad,CuDef*
%ADD14RoundRect,0.150000X-0.825000X-0.150000X0.825000X-0.150000X0.825000X0.150000X-0.825000X0.150000X0*%
G04 #@! TD*
G04 #@! TA.AperFunction,ComponentPad*
%ADD15C,2.340000*%
G04 #@! TD*
G04 #@! TA.AperFunction,SMDPad,CuDef*
%ADD16RoundRect,0.250000X0.450000X-0.262500X0.450000X0.262500X-0.450000X0.262500X-0.450000X-0.262500X0*%
G04 #@! TD*
G04 #@! TA.AperFunction,ComponentPad*
%ADD17R,1.700000X1.700000*%
G04 #@! TD*
G04 #@! TA.AperFunction,ComponentPad*
%ADD18C,1.700000*%
G04 #@! TD*
G04 #@! TA.AperFunction,SMDPad,CuDef*
%ADD19RoundRect,0.250000X-0.450000X0.325000X-0.450000X-0.325000X0.450000X-0.325000X0.450000X0.325000X0*%
G04 #@! TD*
G04 #@! TA.AperFunction,ViaPad*
%ADD20C,0.600000*%
G04 #@! TD*
G04 #@! TA.AperFunction,Conductor*
%ADD21C,0.500000*%
G04 #@! TD*
G04 APERTURE END LIST*
D10*
X143450000Y-76175000D03*
X143450000Y-78000000D03*
D11*
X125700000Y-81700000D03*
D12*
X125700000Y-84240000D03*
D11*
X125800000Y-71300000D03*
D12*
X125800000Y-73840000D03*
D13*
X129125000Y-84400000D03*
X130950000Y-84400000D03*
X129125000Y-73750000D03*
X130950000Y-73750000D03*
D14*
X134300000Y-83700000D03*
X134300000Y-84970000D03*
X134300000Y-86240000D03*
X134300000Y-87510000D03*
X139250000Y-87510000D03*
X139250000Y-86240000D03*
X139250000Y-84970000D03*
X139250000Y-83700000D03*
D15*
X139500000Y-81150000D03*
X137000000Y-71150000D03*
X134500000Y-81150000D03*
D16*
X143500000Y-87825000D03*
X143500000Y-86000000D03*
D17*
X147000000Y-76460000D03*
D18*
X147000000Y-79000000D03*
X147000000Y-81540000D03*
D19*
X143450000Y-71100000D03*
X143450000Y-73150000D03*
X143500000Y-80950000D03*
X143500000Y-83000000D03*
D20*
X145300000Y-76500000D03*
X144400000Y-79300000D03*
X145200000Y-78000000D03*
X145230331Y-82330331D03*
X141500000Y-86900000D03*
X136200000Y-83700000D03*
D21*
X144400000Y-80050000D02*
X143500000Y-80950000D01*
X144400000Y-79300000D02*
X144400000Y-80050000D01*
X145340000Y-76460000D02*
X145300000Y-76500000D01*
X147000000Y-76460000D02*
X145340000Y-76460000D01*
X145230331Y-82330331D02*
X146209669Y-82330331D01*
X146209669Y-82330331D02*
X147000000Y-81540000D01*
X143450000Y-78000000D02*
X145200000Y-78000000D01*
X132874000Y-84103100D02*
X132874000Y-82776000D01*
X132874000Y-82776000D02*
X134500000Y-81150000D01*
X133740900Y-84970000D02*
X132874000Y-84103100D01*
X134300000Y-84970000D02*
X133740900Y-84970000D01*
X125800000Y-73840000D02*
X129035000Y-73840000D01*
X129035000Y-73840000D02*
X129125000Y-73750000D01*
X143450000Y-76175000D02*
X143450000Y-73150000D01*
X147000000Y-79500000D02*
X147000000Y-79000000D01*
X143500000Y-83000000D02*
X147000000Y-79500000D01*
X143500000Y-83000000D02*
X143500000Y-86000000D01*
X142575000Y-86900000D02*
X143500000Y-87825000D01*
X141500000Y-86900000D02*
X142575000Y-86900000D01*
X134300000Y-83700000D02*
X136200000Y-83700000D01*
X132790000Y-86240000D02*
X130950000Y-84400000D01*
X134300000Y-86240000D02*
X132790000Y-86240000D01*
X134859100Y-86240000D02*
X134300000Y-86240000D01*
X139500000Y-81599100D02*
X134859100Y-86240000D01*
X139500000Y-81150000D02*
X139500000Y-81599100D01*
X142650000Y-78000000D02*
X139500000Y-81150000D01*
X143450000Y-78000000D02*
X142650000Y-78000000D01*
X137000000Y-71150000D02*
X137000000Y-71550000D01*
X137000000Y-71550000D02*
X143450000Y-78000000D01*
X134400000Y-73750000D02*
X137000000Y-71150000D01*
X130950000Y-73750000D02*
X134400000Y-73750000D01*
G04 #@! TA.AperFunction,Conductor*
G36*
X157442539Y-69520185D02*
G01*
X157488294Y-69572989D01*
X157499500Y-69624500D01*
X157499500Y-89375500D01*
X157479815Y-89442539D01*
X157427011Y-89488294D01*
X157375500Y-89499500D01*
X124624500Y-89499500D01*
X124557461Y-89479815D01*
X124511706Y-89427011D01*
X124500500Y-89375500D01*
X124500500Y-85137308D01*
X124520185Y-85070269D01*
X124536819Y-85049627D01*
X125257861Y-84328584D01*
X125280667Y-84413694D01*
X125339910Y-84516306D01*
X125423694Y-84600090D01*
X125526306Y-84659333D01*
X125611414Y-84682137D01*
X124902485Y-85391065D01*
X124902485Y-85391066D01*
X124966243Y-85437388D01*
X125162589Y-85537432D01*
X125372164Y-85605526D01*
X125589819Y-85640000D01*
X125810181Y-85640000D01*
X126027835Y-85605526D01*
X126237410Y-85537432D01*
X126433760Y-85437386D01*
X126497513Y-85391066D01*
X126497514Y-85391066D01*
X125788585Y-84682138D01*
X125873694Y-84659333D01*
X125976306Y-84600090D01*
X126060090Y-84516306D01*
X126119333Y-84413694D01*
X126142137Y-84328585D01*
X126851066Y-85037514D01*
X126851066Y-85037513D01*
X126897386Y-84973760D01*
X126934976Y-84899986D01*
X128112501Y-84899986D01*
X128122994Y-85002697D01*
X128178141Y-85169119D01*
X128178143Y-85169124D01*
X128270184Y-85318345D01*
X128394154Y-85442315D01*
X128543375Y-85534356D01*
X128543380Y-85534358D01*
X128709802Y-85589505D01*
X128709809Y-85589506D01*
X128812519Y-85599999D01*
X128874999Y-85599998D01*
X128875000Y-85599998D01*
X128875000Y-84650000D01*
X128112501Y-84650000D01*
X128112501Y-84899986D01*
X126934976Y-84899986D01*
X126997432Y-84777410D01*
X127065526Y-84567837D01*
X127065527Y-84567832D01*
X127100000Y-84350181D01*
X127100000Y-84129818D01*
X127066176Y-83916262D01*
X127065526Y-83912164D01*
X127061578Y-83900013D01*
X128112500Y-83900013D01*
X128112500Y-84150000D01*
X128875000Y-84150000D01*
X128875000Y-83200000D01*
X128874999Y-83199999D01*
X128812528Y-83200000D01*
X128812511Y-83200001D01*
X128709802Y-83210494D01*
X128543380Y-83265641D01*
X128543375Y-83265643D01*
X128394154Y-83357684D01*
X128270184Y-83481654D01*
X128178143Y-83630875D01*
X128178141Y-83630880D01*
X128122994Y-83797302D01*
X128122993Y-83797309D01*
X128112500Y-83900013D01*
X127061578Y-83900013D01*
X126997432Y-83702589D01*
X126897388Y-83506243D01*
X126851066Y-83442485D01*
X126851065Y-83442485D01*
X126142137Y-84151413D01*
X126119333Y-84066306D01*
X126060090Y-83963694D01*
X125976306Y-83879910D01*
X125873694Y-83820667D01*
X125788584Y-83797861D01*
X126517415Y-83069031D01*
X126578738Y-83035546D01*
X126648430Y-83040530D01*
X126692778Y-83069032D01*
X126714635Y-83090889D01*
X126842086Y-83043354D01*
X126842093Y-83043350D01*
X126957187Y-82957190D01*
X126957190Y-82957187D01*
X127043350Y-82842093D01*
X127043354Y-82842086D01*
X127093596Y-82707379D01*
X127093598Y-82707372D01*
X127099999Y-82647844D01*
X127100000Y-82647827D01*
X127100000Y-81950000D01*
X126075278Y-81950000D01*
X126119333Y-81873694D01*
X126150000Y-81759244D01*
X126150000Y-81640756D01*
X126119333Y-81526306D01*
X126075278Y-81450000D01*
X127100000Y-81450000D01*
X127100000Y-80752172D01*
X127099999Y-80752155D01*
X127093598Y-80692627D01*
X127093596Y-80692620D01*
X127043354Y-80557913D01*
X127043350Y-80557906D01*
X126957190Y-80442812D01*
X126957187Y-80442809D01*
X126842093Y-80356649D01*
X126842086Y-80356645D01*
X126707379Y-80306403D01*
X126707372Y-80306401D01*
X126647844Y-80300000D01*
X125950000Y-80300000D01*
X125950000Y-81324722D01*
X125873694Y-81280667D01*
X125759244Y-81250000D01*
X125640756Y-81250000D01*
X125526306Y-81280667D01*
X125450000Y-81324722D01*
X125450000Y-80300000D01*
X124752155Y-80300000D01*
X124692627Y-80306401D01*
X124692617Y-80306403D01*
X124667832Y-80315648D01*
X124598141Y-80320632D01*
X124536818Y-80287146D01*
X124503334Y-80225823D01*
X124500500Y-80199466D01*
X124500500Y-76002486D01*
X134749500Y-76002486D01*
X134749500Y-76297513D01*
X134779559Y-76525826D01*
X134788007Y-76589993D01*
X134860381Y-76860099D01*
X134864361Y-76874951D01*
X134864364Y-76874961D01*
X134977254Y-77147500D01*
X134977258Y-77147510D01*
X135124761Y-77402993D01*
X135304352Y-77637040D01*
X135304358Y-77637047D01*
X135512952Y-77845641D01*
X135512959Y-77845647D01*
X135747006Y-78025238D01*
X136002489Y-78172741D01*
X136002490Y-78172741D01*
X136002493Y-78172743D01*
X136275048Y-78285639D01*
X136560007Y-78361993D01*
X136852494Y-78400500D01*
X136852501Y-78400500D01*
X137147499Y-78400500D01*
X137147506Y-78400500D01*
X137439993Y-78361993D01*
X137724952Y-78285639D01*
X137997507Y-78172743D01*
X138252994Y-78025238D01*
X138487042Y-77845646D01*
X138695646Y-77637042D01*
X138875238Y-77402994D01*
X139022743Y-77147507D01*
X139135639Y-76874952D01*
X139211993Y-76589993D01*
X139250500Y-76297506D01*
X139250500Y-76002494D01*
X139211993Y-75710007D01*
X139135639Y-75425048D01*
X139022743Y-75152493D01*
X139014315Y-75137896D01*
X138875238Y-74897006D01*
X138695647Y-74662959D01*
X138695641Y-74662952D01*
X138487047Y-74454358D01*
X138487040Y-74454352D01*
X138252993Y-74274761D01*
X137997510Y-74127258D01*
X137997500Y-74127254D01*
X137724961Y-74014364D01*
X137724954Y-74014362D01*
X137724952Y-74014361D01*
X137439993Y-73938007D01*
X137391113Y-73931571D01*
X137147513Y-73899500D01*
X137147506Y-73899500D01*
X136852494Y-73899500D01*
X136852486Y-73899500D01*
X136574085Y-73936153D01*
X136560007Y-73938007D01*
X136538921Y-73943657D01*
X136275048Y-74014361D01*
X136275038Y-74014364D01*
X136002499Y-74127254D01*
X136002489Y-74127258D01*
X135747006Y-74274761D01*
X135512959Y-74454352D01*
X135512952Y-74454358D01*
X135304358Y-74662952D01*
X135304352Y-74662959D01*
X135124761Y-74897006D01*
X134977258Y-75152489D01*
X134977254Y-75152499D01*
X134864364Y-75425038D01*
X134864361Y-75425048D01*
X134788008Y-75710004D01*
X134788006Y-75710015D01*
X134749500Y-76002486D01*
X124500500Y-76002486D01*
X124500500Y-74815699D01*
X124520185Y-74748660D01*
X124572989Y-74702905D01*
X124642147Y-74692961D01*
X124705703Y-74721986D01*
X124724819Y-74742815D01*
X124731754Y-74752361D01*
X124887636Y-74908243D01*
X124887641Y-74908247D01*
X124945797Y-74950499D01*
X125065978Y-75037815D01*
X125194375Y-75103237D01*
X125262393Y-75137895D01*
X125262396Y-75137896D01*
X125307341Y-75152499D01*
X125472049Y-75206015D01*
X125689778Y-75240500D01*
X125689779Y-75240500D01*
X125910221Y-75240500D01*
X125910222Y-75240500D01*
X126127951Y-75206015D01*
X126337606Y-75137895D01*
X126534022Y-75037815D01*
X126712365Y-74908242D01*
X126868242Y-74752365D01*
X126948705Y-74641615D01*
X127004035Y-74598949D01*
X127049024Y-74590500D01*
X128152374Y-74590500D01*
X128219413Y-74610185D01*
X128257912Y-74649403D01*
X128269785Y-74668652D01*
X128269788Y-74668656D01*
X128393844Y-74792712D01*
X128543166Y-74884814D01*
X128709703Y-74939999D01*
X128812491Y-74950500D01*
X129437508Y-74950499D01*
X129437516Y-74950498D01*
X129437519Y-74950498D01*
X129493802Y-74944748D01*
X129540297Y-74939999D01*
X129706834Y-74884814D01*
X129856156Y-74792712D01*
X129949819Y-74699049D01*
X130011142Y-74665564D01*
X130080834Y-74670548D01*
X130125181Y-74699049D01*
X130218844Y-74792712D01*
X130368166Y-74884814D01*
X130534703Y-74939999D01*
X130637491Y-74950500D01*
X131262508Y-74950499D01*
X131262516Y-74950498D01*
X131262519Y-74950498D01*
X131318802Y-74944748D01*
X131365297Y-74939999D01*
X131531834Y-74884814D01*
X131681156Y-74792712D01*
X131805212Y-74668656D01*
X131872599Y-74559402D01*
X131924547Y-74512679D01*
X131978138Y-74500500D01*
X134473920Y-74500500D01*
X134571462Y-74481096D01*
X134618913Y-74471658D01*
X134687204Y-74443371D01*
X134755491Y-74415086D01*
X134755492Y-74415085D01*
X134755495Y-74415084D01*
X134811585Y-74377606D01*
X134878416Y-74332952D01*
X136422494Y-72788871D01*
X136483815Y-72755388D01*
X136542266Y-72756779D01*
X136673402Y-72791917D01*
X136890510Y-72820500D01*
X136890517Y-72820500D01*
X137109484Y-72820500D01*
X137109490Y-72820500D01*
X137136912Y-72816889D01*
X137205946Y-72827653D01*
X137240780Y-72852147D01*
X141900951Y-77512318D01*
X141934436Y-77573641D01*
X141929452Y-77643333D01*
X141900951Y-77687680D01*
X140077505Y-79511125D01*
X140016182Y-79544610D01*
X139957731Y-79543219D01*
X139826608Y-79508085D01*
X139826601Y-79508083D01*
X139826598Y-79508083D01*
X139778351Y-79501731D01*
X139609497Y-79479500D01*
X139609490Y-79479500D01*
X139390510Y-79479500D01*
X139390502Y-79479500D01*
X139183853Y-79506707D01*
X139173402Y-79508083D01*
X139134846Y-79518414D01*
X138961884Y-79564758D01*
X138843374Y-79613847D01*
X138759572Y-79648560D01*
X138759569Y-79648561D01*
X138759561Y-79648565D01*
X138569929Y-79758049D01*
X138396201Y-79891355D01*
X138396194Y-79891361D01*
X138241361Y-80046194D01*
X138241355Y-80046201D01*
X138108049Y-80219929D01*
X137998565Y-80409561D01*
X137998561Y-80409569D01*
X137998560Y-80409572D01*
X137972576Y-80472302D01*
X137914758Y-80611884D01*
X137858084Y-80823399D01*
X137858082Y-80823410D01*
X137829500Y-81040502D01*
X137829500Y-81259497D01*
X137851118Y-81423694D01*
X137858083Y-81476598D01*
X137858084Y-81476600D01*
X137914758Y-81688115D01*
X137998556Y-81890421D01*
X137998559Y-81890426D01*
X138005430Y-81902327D01*
X138021901Y-81970228D01*
X137999048Y-82036254D01*
X137985723Y-82052007D01*
X136922585Y-83115145D01*
X136861262Y-83148630D01*
X136791570Y-83143646D01*
X136747222Y-83115144D01*
X136710292Y-83078213D01*
X136710288Y-83078210D01*
X136579185Y-82990609D01*
X136579172Y-82990602D01*
X136433501Y-82930264D01*
X136433489Y-82930261D01*
X136278845Y-82899500D01*
X136278842Y-82899500D01*
X136121158Y-82899500D01*
X136121155Y-82899500D01*
X135966511Y-82930260D01*
X135966506Y-82930262D01*
X135966504Y-82930262D01*
X135966503Y-82930263D01*
X135942844Y-82940062D01*
X135895396Y-82949500D01*
X135407328Y-82949500D01*
X135373105Y-82944684D01*
X135372951Y-82944639D01*
X135227569Y-82902402D01*
X135225211Y-82902216D01*
X135216956Y-82899846D01*
X135192418Y-82884283D01*
X135166473Y-82871220D01*
X135163272Y-82865796D01*
X135157953Y-82862423D01*
X135145726Y-82836068D01*
X135130960Y-82811049D01*
X135131199Y-82804755D01*
X135128549Y-82799042D01*
X135132511Y-82770261D01*
X135133616Y-82741230D01*
X135137219Y-82736065D01*
X135138079Y-82729825D01*
X135156972Y-82707756D01*
X135173597Y-82683930D01*
X135181244Y-82679404D01*
X135183518Y-82676749D01*
X135188012Y-82675400D01*
X135203729Y-82666100D01*
X135240201Y-82650993D01*
X135240214Y-82650987D01*
X135429785Y-82541537D01*
X135429793Y-82541531D01*
X135491007Y-82494560D01*
X134747488Y-81751041D01*
X134807890Y-81726022D01*
X134914351Y-81654888D01*
X135004888Y-81564351D01*
X135076022Y-81457890D01*
X135101041Y-81397488D01*
X135844560Y-82141007D01*
X135891531Y-82079793D01*
X135891537Y-82079785D01*
X136000987Y-81890214D01*
X136000995Y-81890198D01*
X136084765Y-81687956D01*
X136141426Y-81476496D01*
X136169998Y-81259467D01*
X136170000Y-81259451D01*
X136170000Y-81040548D01*
X136169998Y-81040532D01*
X136141426Y-80823503D01*
X136084765Y-80612043D01*
X136000995Y-80409801D01*
X136000990Y-80409792D01*
X135891532Y-80220208D01*
X135891527Y-80220200D01*
X135844560Y-80158991D01*
X135101041Y-80902510D01*
X135076022Y-80842110D01*
X135004888Y-80735649D01*
X134914351Y-80645112D01*
X134807890Y-80573978D01*
X134747487Y-80548957D01*
X135491007Y-79805438D01*
X135491007Y-79805437D01*
X135429790Y-79758466D01*
X135429782Y-79758460D01*
X135240214Y-79649012D01*
X135240198Y-79649004D01*
X135037956Y-79565234D01*
X134826496Y-79508573D01*
X134609467Y-79480001D01*
X134609451Y-79480000D01*
X134390549Y-79480000D01*
X134390532Y-79480001D01*
X134173503Y-79508573D01*
X133962043Y-79565234D01*
X133759801Y-79649004D01*
X133759785Y-79649012D01*
X133570215Y-79758461D01*
X133570200Y-79758471D01*
X133508990Y-79805438D01*
X134252511Y-80548958D01*
X134192110Y-80573978D01*
X134085649Y-80645112D01*
X133995112Y-80735649D01*
X133923978Y-80842110D01*
X133898958Y-80902511D01*
X133155438Y-80158990D01*
X133108471Y-80220200D01*
X133108461Y-80220215D01*
X132999012Y-80409785D01*
X132999004Y-80409801D01*
X132915234Y-80612043D01*
X132858573Y-80823503D01*
X132830001Y-81040532D01*
X132830000Y-81040548D01*
X132830000Y-81259451D01*
X132830001Y-81259467D01*
X132858573Y-81476496D01*
X132915234Y-81687956D01*
X132999004Y-81890198D01*
X132999012Y-81890214D01*
X133108460Y-82079782D01*
X133108466Y-82079790D01*
X133155438Y-82141007D01*
X133898958Y-81397487D01*
X133923978Y-81457890D01*
X133995112Y-81564351D01*
X134085649Y-81654888D01*
X134192110Y-81726022D01*
X134252511Y-81751041D01*
X133508991Y-82494560D01*
X133508991Y-82494561D01*
X133570200Y-82541527D01*
X133570208Y-82541532D01*
X133759792Y-82650990D01*
X133759796Y-82650992D01*
X133783809Y-82660939D01*
X133838212Y-82704780D01*
X133860277Y-82771074D01*
X133842998Y-82838773D01*
X133791861Y-82886384D01*
X133736356Y-82899500D01*
X133409298Y-82899500D01*
X133372432Y-82902401D01*
X133372426Y-82902402D01*
X133214606Y-82948254D01*
X133214603Y-82948255D01*
X133073137Y-83031917D01*
X133073129Y-83031923D01*
X132956923Y-83148129D01*
X132956917Y-83148137D01*
X132873255Y-83289603D01*
X132873254Y-83289606D01*
X132827402Y-83447426D01*
X132827401Y-83447432D01*
X132824500Y-83484298D01*
X132824500Y-83915701D01*
X132827401Y-83952567D01*
X132827402Y-83952573D01*
X132873254Y-84110393D01*
X132873255Y-84110396D01*
X132873256Y-84110398D01*
X132910681Y-84173681D01*
X132956917Y-84251862D01*
X132961702Y-84258031D01*
X132959369Y-84259840D01*
X132986210Y-84308995D01*
X132981226Y-84378687D01*
X132960470Y-84411021D01*
X132962097Y-84412283D01*
X132957313Y-84418449D01*
X132873718Y-84559801D01*
X132827899Y-84717513D01*
X132827704Y-84719998D01*
X132827705Y-84720000D01*
X134176000Y-84720000D01*
X134243039Y-84739685D01*
X134288794Y-84792489D01*
X134300000Y-84844000D01*
X134300000Y-85096000D01*
X134280315Y-85163039D01*
X134227511Y-85208794D01*
X134176000Y-85220000D01*
X132882730Y-85220000D01*
X132815691Y-85200315D01*
X132795049Y-85183681D01*
X131999318Y-84387950D01*
X131965833Y-84326627D01*
X131962999Y-84300269D01*
X131962999Y-83899998D01*
X131962998Y-83899981D01*
X131952499Y-83797203D01*
X131952498Y-83797200D01*
X131921147Y-83702589D01*
X131897314Y-83630666D01*
X131805212Y-83481344D01*
X131681156Y-83357288D01*
X131571425Y-83289606D01*
X131531836Y-83265187D01*
X131531831Y-83265185D01*
X131530362Y-83264698D01*
X131365297Y-83210001D01*
X131365295Y-83210000D01*
X131262510Y-83199500D01*
X130637498Y-83199500D01*
X130637480Y-83199501D01*
X130534703Y-83210000D01*
X130534700Y-83210001D01*
X130368168Y-83265185D01*
X130368163Y-83265187D01*
X130218845Y-83357287D01*
X130124827Y-83451305D01*
X130063503Y-83484789D01*
X129993812Y-83479805D01*
X129949465Y-83451304D01*
X129855845Y-83357684D01*
X129706624Y-83265643D01*
X129706619Y-83265641D01*
X129540197Y-83210494D01*
X129540190Y-83210493D01*
X129437486Y-83200000D01*
X129375000Y-83200000D01*
X129375000Y-85599999D01*
X129437472Y-85599999D01*
X129437486Y-85599998D01*
X129540197Y-85589505D01*
X129706619Y-85534358D01*
X129706624Y-85534356D01*
X129855842Y-85442317D01*
X129949464Y-85348695D01*
X130010787Y-85315210D01*
X130080479Y-85320194D01*
X130124827Y-85348695D01*
X130218844Y-85442712D01*
X130368166Y-85534814D01*
X130534703Y-85589999D01*
X130637491Y-85600500D01*
X131037769Y-85600499D01*
X131104808Y-85620183D01*
X131125450Y-85636818D01*
X132311584Y-86822952D01*
X132359863Y-86855210D01*
X132359865Y-86855212D01*
X132359866Y-86855212D01*
X132434505Y-86905084D01*
X132434506Y-86905084D01*
X132434507Y-86905085D01*
X132571082Y-86961656D01*
X132571087Y-86961658D01*
X132571091Y-86961658D01*
X132571092Y-86961659D01*
X132716079Y-86990500D01*
X132716082Y-86990500D01*
X132716083Y-86990500D01*
X132739800Y-86990500D01*
X132806839Y-87010185D01*
X132852594Y-87062989D01*
X132862538Y-87132147D01*
X132858876Y-87149095D01*
X132827402Y-87257426D01*
X132827401Y-87257432D01*
X132824500Y-87294298D01*
X132824500Y-87725701D01*
X132827401Y-87762567D01*
X132827402Y-87762573D01*
X132873254Y-87920393D01*
X132873255Y-87920396D01*
X132956917Y-88061862D01*
X132956923Y-88061870D01*
X133073129Y-88178076D01*
X133073133Y-88178079D01*
X133073135Y-88178081D01*
X133214602Y-88261744D01*
X133256224Y-88273836D01*
X133372426Y-88307597D01*
X133372429Y-88307597D01*
X133372431Y-88307598D01*
X133409306Y-88310500D01*
X133409314Y-88310500D01*
X135190686Y-88310500D01*
X135190694Y-88310500D01*
X135227569Y-88307598D01*
X135227571Y-88307597D01*
X135227573Y-88307597D01*
X135269191Y-88295505D01*
X135385398Y-88261744D01*
X135526865Y-88178081D01*
X135643081Y-88061865D01*
X135726744Y-87920398D01*
X135772598Y-87762569D01*
X135775500Y-87725694D01*
X135775500Y-87294306D01*
X135772598Y-87257431D01*
X135768454Y-87243168D01*
X135738836Y-87141224D01*
X135726744Y-87099602D01*
X135643081Y-86958135D01*
X135643078Y-86958132D01*
X135638298Y-86951969D01*
X135640750Y-86950066D01*
X135614155Y-86901421D01*
X135619104Y-86831726D01*
X135639940Y-86799304D01*
X135638298Y-86798031D01*
X135643075Y-86791870D01*
X135643081Y-86791865D01*
X135726744Y-86650398D01*
X135772598Y-86492569D01*
X135775500Y-86455694D01*
X135775500Y-86436330D01*
X135795185Y-86369291D01*
X135811819Y-86348649D01*
X136672212Y-85488256D01*
X137572829Y-84587638D01*
X137634150Y-84554155D01*
X137703842Y-84559139D01*
X137759775Y-84601011D01*
X137784192Y-84666475D01*
X137779586Y-84709909D01*
X137777403Y-84717422D01*
X137777401Y-84717432D01*
X137774500Y-84754298D01*
X137774500Y-85185701D01*
X137777401Y-85222567D01*
X137777402Y-85222573D01*
X137823254Y-85380393D01*
X137823255Y-85380396D01*
X137823256Y-85380398D01*
X137829565Y-85391066D01*
X137906917Y-85521862D01*
X137911702Y-85528031D01*
X137909256Y-85529927D01*
X137935857Y-85578642D01*
X137930873Y-85648334D01*
X137910069Y-85680703D01*
X137911702Y-85681969D01*
X137906917Y-85688137D01*
X137823255Y-85829603D01*
X137823254Y-85829606D01*
X137777402Y-85987426D01*
X137777401Y-85987432D01*
X137774500Y-86024298D01*
X137774500Y-86455701D01*
X137777401Y-86492567D01*
X137777402Y-86492573D01*
X137823254Y-86650393D01*
X137823255Y-86650396D01*
X137823256Y-86650398D01*
X137860681Y-86713681D01*
X137906917Y-86791862D01*
X137911702Y-86798031D01*
X137909256Y-86799927D01*
X137935857Y-86848642D01*
X137930873Y-86918334D01*
X137910069Y-86950703D01*
X137911702Y-86951969D01*
X137906917Y-86958137D01*
X137823255Y-87099603D01*
X137823254Y-87099606D01*
X137777402Y-87257426D01*
X137777401Y-87257432D01*
X137774500Y-87294298D01*
X137774500Y-87725701D01*
X137777401Y-87762567D01*
X137777402Y-87762573D01*
X137823254Y-87920393D01*
X137823255Y-87920396D01*
X137906917Y-88061862D01*
X137906923Y-88061870D01*
X138023129Y-88178076D01*
X138023133Y-88178079D01*
X138023135Y-88178081D01*
X138164602Y-88261744D01*
X138206224Y-88273836D01*
X138322426Y-88307597D01*
X138322429Y-88307597D01*
X138322431Y-88307598D01*
X138359306Y-88310500D01*
X138359314Y-88310500D01*
X140140686Y-88310500D01*
X140140694Y-88310500D01*
X140177569Y-88307598D01*
X140177571Y-88307597D01*
X140177573Y-88307597D01*
X140219191Y-88295505D01*
X140335398Y-88261744D01*
X140476865Y-88178081D01*
X140593081Y-88061865D01*
X140676744Y-87920398D01*
X140722598Y-87762569D01*
X140725500Y-87725694D01*
X140725500Y-87556941D01*
X140745185Y-87489902D01*
X140797989Y-87444147D01*
X140867147Y-87434203D01*
X140930703Y-87463228D01*
X140937181Y-87469260D01*
X140989707Y-87521786D01*
X140989711Y-87521789D01*
X141120814Y-87609390D01*
X141120827Y-87609397D01*
X141220060Y-87650500D01*
X141266503Y-87669737D01*
X141421153Y-87700499D01*
X141421156Y-87700500D01*
X141421158Y-87700500D01*
X141578844Y-87700500D01*
X141578845Y-87700499D01*
X141655152Y-87685320D01*
X141733488Y-87669739D01*
X141733489Y-87669738D01*
X141733497Y-87669737D01*
X141757155Y-87659937D01*
X141804604Y-87650500D01*
X142175500Y-87650500D01*
X142242539Y-87670185D01*
X142288294Y-87722989D01*
X142299500Y-87774500D01*
X142299500Y-88137501D01*
X142299501Y-88137519D01*
X142310000Y-88240296D01*
X142310001Y-88240299D01*
X142333264Y-88310500D01*
X142365186Y-88406834D01*
X142457288Y-88556156D01*
X142581344Y-88680212D01*
X142730666Y-88772314D01*
X142897203Y-88827499D01*
X142999991Y-88838000D01*
X144000008Y-88837999D01*
X144000016Y-88837998D01*
X144000019Y-88837998D01*
X144056302Y-88832248D01*
X144102797Y-88827499D01*
X144269334Y-88772314D01*
X144418656Y-88680212D01*
X144542712Y-88556156D01*
X144634814Y-88406834D01*
X144689999Y-88240297D01*
X144700500Y-88137509D01*
X144700499Y-87512492D01*
X144698191Y-87489902D01*
X144689999Y-87409703D01*
X144689998Y-87409700D01*
X144651757Y-87294298D01*
X144634814Y-87243166D01*
X144542712Y-87093844D01*
X144449049Y-87000181D01*
X144415564Y-86938858D01*
X144420548Y-86869166D01*
X144449049Y-86824819D01*
X144482006Y-86791862D01*
X144542712Y-86731156D01*
X144634814Y-86581834D01*
X144689999Y-86415297D01*
X144700500Y-86312509D01*
X144700499Y-85687492D01*
X144699805Y-85680703D01*
X144689999Y-85584703D01*
X144689998Y-85584700D01*
X144673316Y-85534358D01*
X144634814Y-85418166D01*
X144542712Y-85268844D01*
X144418656Y-85144788D01*
X144309402Y-85077400D01*
X144262679Y-85025453D01*
X144250500Y-84971862D01*
X144250500Y-84090638D01*
X144270185Y-84023599D01*
X144309401Y-83985100D01*
X144418656Y-83917712D01*
X144542712Y-83793656D01*
X144634814Y-83644334D01*
X144689999Y-83477797D01*
X144700500Y-83375009D01*
X144700499Y-83162900D01*
X144720183Y-83095862D01*
X144772987Y-83050107D01*
X144842145Y-83040163D01*
X144871947Y-83048338D01*
X144996834Y-83100068D01*
X145151484Y-83130830D01*
X145151487Y-83130831D01*
X145151489Y-83130831D01*
X145309175Y-83130831D01*
X145309176Y-83130830D01*
X145388036Y-83115144D01*
X145463819Y-83100070D01*
X145463820Y-83100069D01*
X145463828Y-83100068D01*
X145487486Y-83090268D01*
X145534935Y-83080831D01*
X146283589Y-83080831D01*
X146381131Y-83061427D01*
X146428582Y-83051989D01*
X146565164Y-82995415D01*
X146635743Y-82948256D01*
X146688085Y-82913283D01*
X146698267Y-82903100D01*
X146706376Y-82897257D01*
X146730272Y-82888834D01*
X146752507Y-82876692D01*
X146765804Y-82876311D01*
X146772273Y-82874032D01*
X146780170Y-82875900D01*
X146798271Y-82875383D01*
X146893713Y-82890500D01*
X146893714Y-82890500D01*
X147106286Y-82890500D01*
X147106287Y-82890500D01*
X147316243Y-82857246D01*
X147518412Y-82791557D01*
X147707816Y-82695051D01*
X147733007Y-82676749D01*
X147879786Y-82570109D01*
X147879788Y-82570106D01*
X147879792Y-82570104D01*
X148030104Y-82419792D01*
X148030106Y-82419788D01*
X148030109Y-82419786D01*
X148155048Y-82247820D01*
X148155047Y-82247820D01*
X148155051Y-82247816D01*
X148251557Y-82058412D01*
X148317246Y-81856243D01*
X148350500Y-81646287D01*
X148350500Y-81433713D01*
X148317246Y-81223757D01*
X148251557Y-81021588D01*
X148155051Y-80832184D01*
X148155049Y-80832181D01*
X148155048Y-80832179D01*
X148030109Y-80660213D01*
X147879786Y-80509890D01*
X147707820Y-80384951D01*
X147707115Y-80384591D01*
X147699054Y-80380485D01*
X147648259Y-80332512D01*
X147631463Y-80264692D01*
X147653999Y-80198556D01*
X147699054Y-80159515D01*
X147707816Y-80155051D01*
X147729789Y-80139086D01*
X147879786Y-80030109D01*
X147879788Y-80030106D01*
X147879792Y-80030104D01*
X148030104Y-79879792D01*
X148030106Y-79879788D01*
X148030109Y-79879786D01*
X148155048Y-79707820D01*
X148155047Y-79707820D01*
X148155051Y-79707816D01*
X148251557Y-79518412D01*
X148317246Y-79316243D01*
X148350500Y-79106287D01*
X148350500Y-78893713D01*
X148317246Y-78683757D01*
X148251557Y-78481588D01*
X148155051Y-78292184D01*
X148155049Y-78292181D01*
X148155048Y-78292179D01*
X148030109Y-78120213D01*
X147916181Y-78006285D01*
X147882696Y-77944962D01*
X147887680Y-77875270D01*
X147929552Y-77819337D01*
X147960529Y-77802422D01*
X148092086Y-77753354D01*
X148092093Y-77753350D01*
X148207187Y-77667190D01*
X148207190Y-77667187D01*
X148293350Y-77552093D01*
X148293354Y-77552086D01*
X148343596Y-77417379D01*
X148343598Y-77417372D01*
X148349999Y-77357844D01*
X148350000Y-77357827D01*
X148350000Y-76710000D01*
X147433012Y-76710000D01*
X147465925Y-76652993D01*
X147500000Y-76525826D01*
X147500000Y-76394174D01*
X147465925Y-76267007D01*
X147433012Y-76210000D01*
X148350000Y-76210000D01*
X148350000Y-75562172D01*
X148349999Y-75562155D01*
X148343598Y-75502627D01*
X148343596Y-75502620D01*
X148293354Y-75367913D01*
X148293350Y-75367906D01*
X148207190Y-75252812D01*
X148207187Y-75252809D01*
X148092093Y-75166649D01*
X148092086Y-75166645D01*
X147957379Y-75116403D01*
X147957372Y-75116401D01*
X147897844Y-75110000D01*
X147250000Y-75110000D01*
X147250000Y-76026988D01*
X147192993Y-75994075D01*
X147065826Y-75960000D01*
X146934174Y-75960000D01*
X146807007Y-75994075D01*
X146750000Y-76026988D01*
X146750000Y-75110000D01*
X146102155Y-75110000D01*
X146042627Y-75116401D01*
X146042620Y-75116403D01*
X145907913Y-75166645D01*
X145907906Y-75166649D01*
X145792812Y-75252809D01*
X145792809Y-75252812D01*
X145706649Y-75367906D01*
X145706645Y-75367913D01*
X145656403Y-75502620D01*
X145656401Y-75502627D01*
X145650000Y-75562155D01*
X145650000Y-76210000D01*
X146566988Y-76210000D01*
X146534075Y-76267007D01*
X146500000Y-76394174D01*
X146500000Y-76525826D01*
X146534075Y-76652993D01*
X146566988Y-76710000D01*
X145650000Y-76710000D01*
X145650000Y-77134362D01*
X145630315Y-77201401D01*
X145577511Y-77247156D01*
X145508353Y-77257100D01*
X145478548Y-77248923D01*
X145433501Y-77230264D01*
X145433489Y-77230261D01*
X145278845Y-77199500D01*
X145278842Y-77199500D01*
X145121158Y-77199500D01*
X145121155Y-77199500D01*
X144966511Y-77230260D01*
X144966506Y-77230262D01*
X144966504Y-77230262D01*
X144966503Y-77230263D01*
X144942844Y-77240062D01*
X144895396Y-77249500D01*
X144524730Y-77249500D01*
X144495289Y-77240855D01*
X144465303Y-77234332D01*
X144460287Y-77230577D01*
X144457691Y-77229815D01*
X144437049Y-77213181D01*
X144399049Y-77175181D01*
X144365564Y-77113858D01*
X144370548Y-77044166D01*
X144399049Y-76999819D01*
X144438868Y-76960000D01*
X144492712Y-76906156D01*
X144584814Y-76756834D01*
X144639999Y-76590297D01*
X144650500Y-76487509D01*
X144650499Y-75862492D01*
X144639999Y-75759703D01*
X144584814Y-75593166D01*
X144492712Y-75443844D01*
X144368656Y-75319788D01*
X144259402Y-75252400D01*
X144212679Y-75200453D01*
X144200500Y-75146862D01*
X144200500Y-74240638D01*
X144220185Y-74173599D01*
X144259401Y-74135100D01*
X144368656Y-74067712D01*
X144492712Y-73943656D01*
X144584814Y-73794334D01*
X144639999Y-73627797D01*
X144650500Y-73525009D01*
X144650499Y-72774992D01*
X144648496Y-72755388D01*
X144639999Y-72672203D01*
X144639998Y-72672200D01*
X144621105Y-72615185D01*
X144584814Y-72505666D01*
X144492712Y-72356344D01*
X144368656Y-72232288D01*
X144365342Y-72230243D01*
X144363546Y-72228248D01*
X144362989Y-72227807D01*
X144363064Y-72227711D01*
X144318618Y-72178297D01*
X144307397Y-72109334D01*
X144335240Y-72045252D01*
X144365348Y-72019165D01*
X144368342Y-72017318D01*
X144492315Y-71893345D01*
X144584356Y-71744124D01*
X144584358Y-71744119D01*
X144639505Y-71577697D01*
X144639506Y-71577690D01*
X144649999Y-71474986D01*
X144650000Y-71474973D01*
X144650000Y-71350000D01*
X142250001Y-71350000D01*
X142250001Y-71474986D01*
X142260494Y-71577697D01*
X142315641Y-71744119D01*
X142315643Y-71744124D01*
X142407684Y-71893345D01*
X142531655Y-72017316D01*
X142531659Y-72017319D01*
X142534656Y-72019168D01*
X142536279Y-72020972D01*
X142537323Y-72021798D01*
X142537181Y-72021976D01*
X142581381Y-72071116D01*
X142592602Y-72140079D01*
X142564759Y-72204161D01*
X142534661Y-72230241D01*
X142531349Y-72232283D01*
X142531343Y-72232288D01*
X142407289Y-72356342D01*
X142315187Y-72505663D01*
X142315185Y-72505668D01*
X142297181Y-72560000D01*
X142260001Y-72672203D01*
X142260001Y-72672204D01*
X142260000Y-72672204D01*
X142249500Y-72774983D01*
X142249500Y-73525001D01*
X142249501Y-73525019D01*
X142260000Y-73627796D01*
X142260001Y-73627799D01*
X142315185Y-73794331D01*
X142315186Y-73794334D01*
X142407288Y-73943656D01*
X142531344Y-74067712D01*
X142640597Y-74135099D01*
X142687321Y-74187047D01*
X142699500Y-74240638D01*
X142699500Y-75146862D01*
X142679815Y-75213901D01*
X142640598Y-75252399D01*
X142572288Y-75294533D01*
X142531342Y-75319789D01*
X142407288Y-75443843D01*
X142407285Y-75443847D01*
X142317150Y-75589979D01*
X142265202Y-75636704D01*
X142196240Y-75647925D01*
X142132158Y-75620082D01*
X142123931Y-75612563D01*
X138530841Y-72019473D01*
X138497356Y-71958150D01*
X138502340Y-71888458D01*
X138503930Y-71884414D01*
X138585241Y-71688117D01*
X138641917Y-71476598D01*
X138670500Y-71259490D01*
X138670500Y-71040510D01*
X138641917Y-70823402D01*
X138615554Y-70725013D01*
X142250000Y-70725013D01*
X142250000Y-70850000D01*
X143200000Y-70850000D01*
X143700000Y-70850000D01*
X144649999Y-70850000D01*
X144649999Y-70725028D01*
X144649998Y-70725013D01*
X144639505Y-70622302D01*
X144584358Y-70455880D01*
X144584356Y-70455875D01*
X144492315Y-70306654D01*
X144368345Y-70182684D01*
X144219124Y-70090643D01*
X144219119Y-70090641D01*
X144052697Y-70035494D01*
X144052690Y-70035493D01*
X143949986Y-70025000D01*
X143700000Y-70025000D01*
X143700000Y-70850000D01*
X143200000Y-70850000D01*
X143200000Y-70025000D01*
X142950029Y-70025000D01*
X142950012Y-70025001D01*
X142847302Y-70035494D01*
X142680880Y-70090641D01*
X142680875Y-70090643D01*
X142531654Y-70182684D01*
X142407684Y-70306654D01*
X142315643Y-70455875D01*
X142315641Y-70455880D01*
X142260494Y-70622302D01*
X142260493Y-70622309D01*
X142250000Y-70725013D01*
X138615554Y-70725013D01*
X138585241Y-70611883D01*
X138501440Y-70409572D01*
X138468290Y-70352155D01*
X138391950Y-70219929D01*
X138258644Y-70046201D01*
X138258638Y-70046194D01*
X138103805Y-69891361D01*
X138103798Y-69891355D01*
X137930070Y-69758049D01*
X137884756Y-69731887D01*
X137836540Y-69681320D01*
X137823317Y-69612713D01*
X137849285Y-69547848D01*
X137906200Y-69507320D01*
X137946756Y-69500500D01*
X157375500Y-69500500D01*
X157442539Y-69520185D01*
G37*
G04 #@! TD.AperFunction*
G04 #@! TA.AperFunction,Conductor*
G36*
X145613066Y-78773818D02*
G01*
X145648718Y-78833907D01*
X145651043Y-78883965D01*
X145649500Y-78893713D01*
X145649500Y-79106287D01*
X145682754Y-79316243D01*
X145745087Y-79508082D01*
X145748444Y-79518415D01*
X145765524Y-79551937D01*
X145778419Y-79620606D01*
X145752142Y-79685346D01*
X145742719Y-79695911D01*
X144899526Y-80539103D01*
X144838203Y-80572588D01*
X144768511Y-80567604D01*
X144712578Y-80525732D01*
X144690591Y-80477373D01*
X144689505Y-80472302D01*
X144634358Y-80305880D01*
X144634356Y-80305875D01*
X144542315Y-80156654D01*
X144418345Y-80032684D01*
X144269124Y-79940643D01*
X144269119Y-79940641D01*
X144102697Y-79885494D01*
X144102690Y-79885493D01*
X143999986Y-79875000D01*
X143750000Y-79875000D01*
X143750000Y-80826000D01*
X143730315Y-80893039D01*
X143677511Y-80938794D01*
X143626000Y-80950000D01*
X143500000Y-80950000D01*
X143500000Y-81076000D01*
X143480315Y-81143039D01*
X143427511Y-81188794D01*
X143376000Y-81200000D01*
X142300001Y-81200000D01*
X142300001Y-81324986D01*
X142310494Y-81427697D01*
X142365641Y-81594119D01*
X142365643Y-81594124D01*
X142457684Y-81743345D01*
X142581655Y-81867316D01*
X142581659Y-81867319D01*
X142584656Y-81869168D01*
X142586279Y-81870972D01*
X142587323Y-81871798D01*
X142587181Y-81871976D01*
X142631381Y-81921116D01*
X142642602Y-81990079D01*
X142614759Y-82054161D01*
X142584661Y-82080241D01*
X142581349Y-82082283D01*
X142581343Y-82082288D01*
X142457289Y-82206342D01*
X142365187Y-82355663D01*
X142365186Y-82355666D01*
X142310001Y-82522203D01*
X142310001Y-82522204D01*
X142310000Y-82522204D01*
X142299500Y-82624983D01*
X142299500Y-83375001D01*
X142299501Y-83375019D01*
X142310000Y-83477796D01*
X142310001Y-83477799D01*
X142360726Y-83630875D01*
X142365186Y-83644334D01*
X142457288Y-83793656D01*
X142581344Y-83917712D01*
X142690597Y-83985099D01*
X142737321Y-84037047D01*
X142749500Y-84090638D01*
X142749500Y-84971862D01*
X142729815Y-85038901D01*
X142690598Y-85077399D01*
X142622288Y-85119533D01*
X142581342Y-85144789D01*
X142457289Y-85268842D01*
X142365187Y-85418163D01*
X142365185Y-85418168D01*
X142357184Y-85442315D01*
X142310001Y-85584703D01*
X142310001Y-85584704D01*
X142310000Y-85584704D01*
X142299500Y-85687483D01*
X142299500Y-85687496D01*
X142299501Y-86025500D01*
X142279817Y-86092539D01*
X142227013Y-86138294D01*
X142175501Y-86149500D01*
X141804604Y-86149500D01*
X141757155Y-86140062D01*
X141733497Y-86130263D01*
X141733493Y-86130262D01*
X141733488Y-86130260D01*
X141578845Y-86099500D01*
X141578842Y-86099500D01*
X141421158Y-86099500D01*
X141421155Y-86099500D01*
X141266510Y-86130261D01*
X141266498Y-86130264D01*
X141120827Y-86190602D01*
X141120814Y-86190609D01*
X140989711Y-86278210D01*
X140989707Y-86278213D01*
X140937181Y-86330740D01*
X140875858Y-86364225D01*
X140806166Y-86359241D01*
X140750233Y-86317369D01*
X140725816Y-86251905D01*
X140725500Y-86243059D01*
X140725500Y-86024313D01*
X140725499Y-86024298D01*
X140722598Y-85987432D01*
X140722597Y-85987426D01*
X140676745Y-85829606D01*
X140676744Y-85829603D01*
X140676744Y-85829602D01*
X140593081Y-85688135D01*
X140593078Y-85688132D01*
X140588298Y-85681969D01*
X140590750Y-85680066D01*
X140564155Y-85631421D01*
X140569104Y-85561726D01*
X140589940Y-85529304D01*
X140588298Y-85528031D01*
X140593075Y-85521870D01*
X140593081Y-85521865D01*
X140676744Y-85380398D01*
X140722598Y-85222569D01*
X140725500Y-85185694D01*
X140725500Y-84754306D01*
X140722598Y-84717431D01*
X140722595Y-84717422D01*
X140684890Y-84587640D01*
X140676744Y-84559602D01*
X140593081Y-84418135D01*
X140593078Y-84418132D01*
X140588298Y-84411969D01*
X140590750Y-84410066D01*
X140564155Y-84361421D01*
X140569104Y-84291726D01*
X140589940Y-84259304D01*
X140588298Y-84258031D01*
X140593075Y-84251870D01*
X140593081Y-84251865D01*
X140676744Y-84110398D01*
X140722598Y-83952569D01*
X140725500Y-83915694D01*
X140725500Y-83484306D01*
X140722598Y-83447431D01*
X140696408Y-83357287D01*
X140676745Y-83289606D01*
X140676744Y-83289603D01*
X140676744Y-83289602D01*
X140593081Y-83148135D01*
X140593079Y-83148133D01*
X140593076Y-83148129D01*
X140476870Y-83031923D01*
X140476862Y-83031917D01*
X140398681Y-82985681D01*
X140335398Y-82948256D01*
X140335397Y-82948255D01*
X140335396Y-82948255D01*
X140335395Y-82948254D01*
X140197487Y-82908188D01*
X140138602Y-82870582D01*
X140109396Y-82807109D01*
X140119142Y-82737922D01*
X140164746Y-82684988D01*
X140184620Y-82674556D01*
X140240428Y-82651440D01*
X140430071Y-82541950D01*
X140603800Y-82408643D01*
X140758643Y-82253800D01*
X140891950Y-82080071D01*
X141001440Y-81890428D01*
X141085241Y-81688117D01*
X141141917Y-81476598D01*
X141170500Y-81259490D01*
X141170500Y-81040510D01*
X141141917Y-80823402D01*
X141106779Y-80692264D01*
X141107064Y-80680266D01*
X141102870Y-80669020D01*
X141107880Y-80645985D01*
X141108442Y-80622418D01*
X141115541Y-80610770D01*
X141117722Y-80600747D01*
X141136986Y-80575013D01*
X142300000Y-80575013D01*
X142300000Y-80700000D01*
X143250000Y-80700000D01*
X143250000Y-79875000D01*
X143000029Y-79875000D01*
X143000012Y-79875001D01*
X142897302Y-79885494D01*
X142730880Y-79940641D01*
X142730875Y-79940643D01*
X142581654Y-80032684D01*
X142457684Y-80156654D01*
X142365643Y-80305875D01*
X142365641Y-80305880D01*
X142310494Y-80472302D01*
X142310493Y-80472309D01*
X142300000Y-80575013D01*
X141136986Y-80575013D01*
X141138870Y-80572496D01*
X142689217Y-79022149D01*
X142750538Y-78988666D01*
X142815899Y-78992126D01*
X142830662Y-78997017D01*
X142847203Y-79002499D01*
X142949991Y-79013000D01*
X143950008Y-79012999D01*
X143950016Y-79012998D01*
X143950019Y-79012998D01*
X144006302Y-79007248D01*
X144052797Y-79002499D01*
X144219334Y-78947314D01*
X144368656Y-78855212D01*
X144437049Y-78786819D01*
X144498372Y-78753334D01*
X144524730Y-78750500D01*
X144895396Y-78750500D01*
X144942844Y-78759937D01*
X144966503Y-78769737D01*
X144966508Y-78769738D01*
X144966511Y-78769739D01*
X145121153Y-78800499D01*
X145121156Y-78800500D01*
X145121158Y-78800500D01*
X145278844Y-78800500D01*
X145278845Y-78800499D01*
X145433497Y-78769737D01*
X145481117Y-78750011D01*
X145550587Y-78742543D01*
X145613066Y-78773818D01*
G37*
G04 #@! TD.AperFunction*
G04 #@! TA.AperFunction,Conductor*
G36*
X136120283Y-69520185D02*
G01*
X136166038Y-69572989D01*
X136175982Y-69642147D01*
X136146957Y-69705703D01*
X136115244Y-69731887D01*
X136069929Y-69758049D01*
X135896201Y-69891355D01*
X135896194Y-69891361D01*
X135741361Y-70046194D01*
X135741355Y-70046201D01*
X135608049Y-70219929D01*
X135498565Y-70409561D01*
X135498561Y-70409569D01*
X135498560Y-70409572D01*
X135463847Y-70493374D01*
X135414758Y-70611884D01*
X135358084Y-70823399D01*
X135358082Y-70823410D01*
X135329500Y-71040502D01*
X135329500Y-71259497D01*
X135342633Y-71359244D01*
X135358083Y-71476598D01*
X135393220Y-71607731D01*
X135391557Y-71677581D01*
X135361126Y-71727505D01*
X134125451Y-72963181D01*
X134064128Y-72996666D01*
X134037770Y-72999500D01*
X131978138Y-72999500D01*
X131911099Y-72979815D01*
X131872599Y-72940597D01*
X131864604Y-72927635D01*
X131805212Y-72831344D01*
X131681156Y-72707288D01*
X131531834Y-72615186D01*
X131365297Y-72560001D01*
X131365295Y-72560000D01*
X131262510Y-72549500D01*
X130637498Y-72549500D01*
X130637480Y-72549501D01*
X130534703Y-72560000D01*
X130534700Y-72560001D01*
X130368168Y-72615185D01*
X130368163Y-72615187D01*
X130218842Y-72707289D01*
X130125181Y-72800951D01*
X130063858Y-72834436D01*
X129994166Y-72829452D01*
X129949819Y-72800951D01*
X129856157Y-72707289D01*
X129856156Y-72707288D01*
X129706834Y-72615186D01*
X129540297Y-72560001D01*
X129540295Y-72560000D01*
X129437510Y-72549500D01*
X128812498Y-72549500D01*
X128812480Y-72549501D01*
X128709703Y-72560000D01*
X128709700Y-72560001D01*
X128543168Y-72615185D01*
X128543163Y-72615187D01*
X128393842Y-72707289D01*
X128269789Y-72831342D01*
X128177687Y-72980663D01*
X128177686Y-72980666D01*
X128169787Y-73004505D01*
X128130013Y-73061950D01*
X128065497Y-73088772D01*
X128052081Y-73089500D01*
X127049024Y-73089500D01*
X127047188Y-73088961D01*
X127045339Y-73089445D01*
X127013803Y-73079157D01*
X126981985Y-73069815D01*
X126980156Y-73068182D01*
X126978914Y-73067777D01*
X126970129Y-73059229D01*
X126952940Y-73043882D01*
X126950744Y-73041190D01*
X126868242Y-72927635D01*
X126813247Y-72872640D01*
X126809280Y-72867777D01*
X126798055Y-72841131D01*
X126784198Y-72815753D01*
X126784657Y-72809325D01*
X126782156Y-72803387D01*
X126787119Y-72774902D01*
X126789182Y-72746061D01*
X126793044Y-72740902D01*
X126794150Y-72734555D01*
X126813724Y-72713276D01*
X126831054Y-72690128D01*
X126839023Y-72685776D01*
X126841454Y-72683134D01*
X126846077Y-72681924D01*
X126862031Y-72673213D01*
X126942086Y-72643354D01*
X126942093Y-72643350D01*
X127057187Y-72557190D01*
X127057190Y-72557187D01*
X127143350Y-72442093D01*
X127143354Y-72442086D01*
X127193596Y-72307379D01*
X127193598Y-72307372D01*
X127199999Y-72247844D01*
X127200000Y-72247827D01*
X127200000Y-71550000D01*
X126175278Y-71550000D01*
X126219333Y-71473694D01*
X126250000Y-71359244D01*
X126250000Y-71240756D01*
X126219333Y-71126306D01*
X126175278Y-71050000D01*
X127200000Y-71050000D01*
X127200000Y-70352172D01*
X127199999Y-70352155D01*
X127193598Y-70292627D01*
X127193596Y-70292620D01*
X127143354Y-70157913D01*
X127143350Y-70157906D01*
X127057190Y-70042812D01*
X127057187Y-70042809D01*
X126942093Y-69956649D01*
X126942086Y-69956645D01*
X126807379Y-69906403D01*
X126807372Y-69906401D01*
X126747844Y-69900000D01*
X126050000Y-69900000D01*
X126050000Y-70924722D01*
X125973694Y-70880667D01*
X125859244Y-70850000D01*
X125740756Y-70850000D01*
X125626306Y-70880667D01*
X125550000Y-70924722D01*
X125550000Y-69900000D01*
X124852155Y-69900000D01*
X124792627Y-69906401D01*
X124792617Y-69906403D01*
X124667832Y-69952945D01*
X124598141Y-69957929D01*
X124536818Y-69924443D01*
X124503334Y-69863120D01*
X124500500Y-69836763D01*
X124500500Y-69624500D01*
X124520185Y-69557461D01*
X124572989Y-69511706D01*
X124624500Y-69500500D01*
X136053244Y-69500500D01*
X136120283Y-69520185D01*
G37*
G04 #@! TD.AperFunction*
M02*
